# AST/ASF file generated using VICON BodyLanguage
# -----------------------------------------------
:version 1.10
:name VICON
:units
  mass 1.0
  length 0.45
  angle deg
:documentation
   .ast/.asf automatically generated from VICON data using
   VICON BodyBuilder and BodyLanguage model FoxedUp or BRILLIANT.MOD
:root
   order TX TY TZ RX RY RZ
   axis XYZ
   position 0 0 0  
   orientation 0 0 0 
:bonedata
  begin
     id 1 
     name lhipjoint
     direction 0.558404 -0.748506 0.357664 
     length 2.4234 
     axis 0 0 0  XYZ
  end
  begin
     id 2 
     name lfemur
     direction 0.34202 -0.939693 0  
     length 7.14567  
     axis 0 0 20  XYZ
    dof rx ry rz
    limits (-160.0 20.0)
           (-70.0 70.0)
           (-60.0 70.0)
  end
  begin
     id 3 
     name ltibia
     direction 0.34202 -0.939693 0   
     length 8.13956   
     axis 0 0 20   XYZ
    dof rx
    limits (-10.0 170.0)
  end
  begin
     id 4 
     name lfoot
     direction 0.0791314 -0.217412 0.972867   
     length 2.00134   
     axis -90 7.62852e-016 20   XYZ
    dof rx rz
    limits (-45.0 90.0)
           (-70.0 20.0)
  end
  begin
     id 5 
     name ltoes
     direction 1.53547e-011 -4.21922e-011 1   
     length 1.00735   
     axis -90 7.62852e-016 20   XYZ
    dof rx
    limits (-90.0 20.0)
  end
  begin
     id 6 
     name rhipjoint
     direction -0.496392 -0.78327 0.374276   
     length 2.31584  
     axis 0 0 0  XYZ 
  end
  begin
     id 7 
     name rfemur
     direction -0.34202 -0.939693 0   
     length 7.47417   
     axis 0 0 -20   XYZ
    dof rx ry rz
    limits (-160.0 20.0)
           (-70.0 70.0)
           (-70.0 60.0)
  end
  begin
     id 8 
     name rtibia
     direction -0.34202 -0.939693 0   
     length 7.69071   
     axis 0 0 -20   XYZ
    dof rx
    limits (-10.0 170.0)
 end
 begin
     id 9 
     name rfoot
     direction -0.103069 -0.28318 0.953512   
     length 2.16135  
     axis -90 -7.62852e-016 -20   XYZ
    dof rx rz
    limits (-45.0 90.0)
           (-20.0 70.0)
  end
  begin
     id 10 
     name rtoes
     direction -1.53581e-011 -4.21904e-011 1   
     length 1.07867   
     axis -90 -7.62852e-016 -20   XYZ
    dof rx
    limits (-90.0 20.0)
  end
  begin
     id 11 
     name lowerback
     direction -0.0258961 0.994776 -0.0987407   
     length 2.19412   
     axis 0 0 0   XYZ
    dof rx ry rz
    limits (-20.0 45.0)
           (-30.0 30.0)
           (-30.0 30.0)
  end
  begin
     id 12 
     name upperback
     direction 0.0402454 0.999185 0.00320666   
     length 2.18445   
     axis 0 0 0   XYZ
    dof rx ry rz
    limits (-20.0 45.0)
           (-30.0 30.0)
           (-30.0 30.0)
  end
  begin
     id 13 
     name thorax
     direction 0.0519376 0.997415 0.0496558   
     length 2.21487   
     axis 0 0 0   XYZ
    dof rx ry rz
    limits (-20.0 45.0)
           (-30.0 30.0)
           (-30.0 30.0)
  end
  begin
     id 14 
     name lowerneck
     direction -0.0921276 0.983211 0.157506   
     length 1.61201   
     axis 0 0 0   XYZ
    dof rx ry rz
    limits (-20.0 45.0)
           (-30.0 30.0)
           (-30.0 30.0)
  end
  begin
     id 15 
     name upperneck
     direction 0.0820814 0.98162 -0.172292   
     length 1.65275   
     axis 0 0 0   XYZ
    dof rx ry rz
    limits (-20.0 45.0)
           (-30.0 30.0)
           (-30.0 30.0)
  end
  begin
     id 16
     name head
     direction 0.0336554 0.996413 -0.0776455  
     length 1.66415  
     axis 0 0 0   XYZ
    dof rx ry rz
    limits (-20.0 45.0)
           (-30.0 30.0)
           (-30.0 30.0)
  end
  begin
     id 17 
     name lclavicle
     direction 0.94696 0.284418 -0.149576  
     length 3.41447  
     axis 0 0 0   XYZ
    dof ry rz
    limits (-20.0 10.0)
           (0.0 20.0)
  end
  begin
     id 18 
     name lhumerus
     direction 1 -0.000130264 -9.81312e-005   
     length 5.19964   
     axis 180 -30 -90   XYZ
    dof rx ry rz
    limits (-60.0 90.0)
           (-90.0 90.0)
           (-90.0 90.0)
  end
  begin
     id 19
     name lradius
     direction 1 -4.48961e-011 1.43854e-026   
     length 3.32189   
     axis 180 -30 -90   XYZ
    dof rx
    limits (-10.0 170.0)
  end
  begin
     id 20
     name lwrist
     direction 1 -4.48958e-011 3.1502e-026   
     length 1.66095   
     axis -1.97692e-014 90 90   XYZ
    dof ry
    limits (-180.0 0.0)
 end
  begin
     id 21 
     name lhand
     direction 1 -4.48927e-011 6.3004e-026   
     length 0.645616   
     axis -4.02019e-014 90 90   XYZ
    dof rx rz
    limits (-90.0 90.0)
           (-45.0 45.0)
  end
  begin
     id 22 
     name lfingers
     direction 1 -4.4904e-011 1.26008e-025   
     length 0.520512   
     axis -8.04039e-014 90 90   XYZ
    dof rx
    limits (0.0 90.0)
  end
  begin
     id 23
     name lthumb
     direction 0.707107 -6.34947e-011 0.707107   
     length 0.747354   
     axis -90 45 2.85299e-015   XYZ
    dof rx rz
    limits (-45.0 45.0)
           (-45.0 45.0)
  end
  begin
     id 24 
     name rclavicle
     direction -0.909391 0.383475 -0.161107   
     length 3.25176  
     axis 0 0 0   XYZ 
    dof ry rz
    limits (-10.0 20.0)
           (-20.0 0.0)
  end
  begin
     id 25 
     name rhumerus
     direction -1 -4.48965e-011 -1.81384e-027  
     length 5.6595   
     axis 180 30 90   XYZ
    dof rx ry rz
    limits (-90.0 60.0)
           (-90.0 90.0)
           (-90.0 90.0)
  end
  begin
     id 26 
     name rradius
     direction -1 -4.48996e-011 -8.09397e-027   
     length 3.37604   
     axis 180 30 90   XYZ
    dof rx
    limits (-10.0 170.0)
  end
  begin
     id 27 
     name rwrist
     direction -1 -4.48927e-011 -1.56669e-026   
     length 1.68802   
     axis 1.21142e-014 -90 -90   XYZ
    dof ry
    limits (-180.0 0.0)
  end
  begin
     id 28
     name rhand
     direction -1 -4.48912e-011 -3.13339e-026   
     length 0.824702   
     axis 1.99937e-014 -90 -90   XYZ
    dof rx rz
    limits (-90.0 90.0)
           (-45.0 45.0)
  end
  begin
     id 29
     name rfingers
     direction -1 -4.49011e-011 -6.26677e-026   
     length 0.664896   
     axis 3.99874e-014 -90 -90   XYZ
    dof rx
    limits (0.0 90.0)
  end
  begin
     id 30
     name rthumb
     direction -0.707107 -6.34931e-011 0.707107   
     length 0.954662   
     axis -90 -45 -2.85299e-015   XYZ
    dof rx rz
    limits (-45.0 45.0)
           (-45.0 45.0)
  end
:hierarchy
  begin
    root lhipjoint rhipjoint lowerback
    lhipjoint lfemur
    lfemur ltibia
    ltibia lfoot
    lfoot ltoes
    rhipjoint rfemur
    rfemur rtibia
    rtibia rfoot
    rfoot rtoes
    lowerback upperback
    upperback thorax
    thorax lowerneck lclavicle rclavicle
    lowerneck upperneck
    upperneck head
    lclavicle lhumerus
    lhumerus lradius
    lradius lwrist
    lwrist lhand lthumb
    lhand lfingers
    rclavicle rhumerus
    rhumerus rradius
    rradius rwrist
    rwrist rhand rthumb
    rhand rfingers
  end

#!OML:ASF F:\VICON\USERDATA\INSTALL\rory3\rory3.ASF
:FULLY-SPECIFIED
:DEGREES
626
root 2.65554 16.2631 5.49869 -16.107 -16.5951 2.40365
lowerback 13.9249 -11.8832 -5.7794
upperback 3.79863 -16.5318 4.54651
thorax -0.50999 -8.50337 9.8659
lowerneck -9.88483 4.55194 -8.61655
upperneck 34.6358 6.2398 5.37189
head 12.6488 2.12368 4.35876
rclavicle -1.2106e-013 5.08889e-014
rhumerus -65.8309 -24.1864 -37.22
rradius 28.3526
rwrist -7.86064
rhand -18.6103 21.3808
rfingers 7.12502
rthumb 7.68131 -8.45969
lclavicle -1.2106e-013 5.08889e-014
lhumerus -5.17994 -18.3442 102.886
lradius 42.0118
lwrist -1.77137
lhand -20.685 27.6972
lfingers 7.12502
lthumb 5.67849 -302.399
rfemur -57.0109 6.97002 41.6828
rtibia 45.3295
rfoot 13.0161 9.08112
rtoes 9.00343
lfemur -5.71178 13.9943 -31.253
ltibia 52.8629
lfoot -25.0696 7.97515
ltoes 9.83391
627
root 2.64394 16.2775 5.57894 -16.4815 -15.1581 4.85363
lowerback 14.0052 -12.0471 -8.48592
upperback 3.35682 -17.149 3.97189
thorax -0.293486 -8.82789 10.6724
lowerneck -9.57807 4.92749 -8.74893
upperneck 34.1564 6.66952 5.75352
head 12.3127 2.37762 4.53333
rclavicle 1.69563e-013 -3.65764e-014
rhumerus -66.059 -24.2567 -36.3138
rradius 27.8444
rwrist -8.76522
rhand -18.8943 20.8199
rfingers 7.12502
rthumb 7.40716 -9.03042
lclavicle 1.69563e-013 -3.65764e-014
lhumerus -4.33211 -21.9343 103.332
lradius 42.5465
lwrist -4.12027
lhand -19.7469 26.2959
lfingers 7.12502
lthumb 6.58412 -303.826
rfemur -57.5702 7.48209 39.4733
rtibia 46.119
rfoot 13.3049 11.2622
rtoes 6.10726
lfemur -5.19746 13.8117 -34.1382
ltibia 51.9642
lfoot -24.8793 7.74129
ltoes 10.4144
628
root 2.6169 16.2935 5.65933 -17.2678 -15.114 6.99693
lowerback 14.2684 -11.642 -10.9453
upperback 3.2934 -17.0024 3.4709
thorax 0.0209109 -8.79201 11.4081
lowerneck -10.1437 5.05433 -8.39484
upperneck 34.3074 6.85853 5.7157
head 12.4932 2.49714 4.51515
rclavicle 4.41302e-014 -1.11319e-014
rhumerus -66.6472 -24.88 -34.7732
rradius 27.4688
rwrist -9.01424
rhand -18.6036 20.367
rfingers 7.12502
rthumb 7.68777 -9.4733
lclavicle 4.41302e-014 -1.11319e-014
lhumerus -3.25675 -25.6638 103.703
lradius 42.9699
lwrist -7.18331
lhand -19.0442 25.0987
lfingers 7.12502
lthumb 7.26253 -305.046
rfemur -56.9673 8.75025 38.3252
rtibia 46.8369
rfoot 14.1745 12.8962
rtoes 5.30551
lfemur -4.22668 15.1366 -36.0217
ltibia 50.8784
lfoot -24.6637 7.39004
ltoes 10.1781
629
root 2.59535 16.3331 5.73769 -16.8884 -14.0441 6.93018
lowerback 14.1433 -12.0058 -11.1653
upperback 2.9966 -17.5126 3.55169
thorax -0.00612409 -9.03546 11.6009
lowerneck -11.1498 5.05788 -7.57652
upperneck 34.9664 6.98082 5.10416
head 13.0517 2.53946 4.24163
rclavicle -6.85807e-014 -7.95139e-015
rhumerus -67.4774 -25.3639 -32.9324
rradius 27.3746
rwrist -9.21524
rhand -17.7861 19.8029
rfingers 7.12502
rthumb 8.47675 -10.0069
lclavicle -6.85807e-014 -7.95139e-015
lhumerus -2.4027 -29.1366 104.247
lradius 43.5285
lwrist -10.3543
lhand -18.8209 24.2706
lfingers 7.12502
lthumb 7.47802 -305.882
rfemur -57.0158 9.06999 38.6156
rtibia 47.4025
rfoot 14.5542 13.8514
rtoes 5.44913
lfemur -3.61296 15.0384 -35.9184
ltibia 49.9292
lfoot -24.2918 6.58421
ltoes 10.4437
630
root 2.59161 16.3692 5.8008 -16.2792 -13.0256 6.36532
lowerback 14.121 -12.4873 -10.6182
upperback 2.68767 -18.0717 3.62497
thorax -0.322349 -9.26911 11.4535
lowerneck -11.1801 5.21184 -7.05288
upperneck 34.7061 7.15967 4.88963
head 12.9665 2.67276 4.07928
rclavicle -1.09332e-013 -1.59028e-014
rhumerus -68.2567 -25.5769 -31.8193
rradius 27.4974
rwrist -9.73965
rhand -17.0676 19.0092
rfingers 7.12502
rthumb 9.17009 -10.7714
lclavicle -1.09332e-013 -1.59028e-014
lhumerus -1.49459 -32.2296 104.351
lradius 44.1149
lwrist -13.0651
lhand -18.6166 23.2162
lfingers 7.12502
lthumb 7.67525 -306.943
rfemur -56.9838 9.01391 39.4522
rtibia 47.5479
rfoot 15.7614 14.0326
rtoes 8.02799
lfemur -3.20967 14.7756 -35.4133
ltibia 49.1284
lfoot -23.9417 5.75062
ltoes 10.8767
631
root 2.58558 16.4166 5.88394 -16.0798 -12.5229 6.02195
lowerback 13.2189 -12.6864 -9.83214
upperback 3.16143 -18.138 3.22172
thorax 0.299589 -9.34335 10.3487
lowerneck -10.1301 5.25526 -7.49889
upperneck 32.8889 6.94654 5.85098
head 11.9224 2.74493 4.34644
rclavicle -1.18476e-013 4.92986e-014
rhumerus -69.2067 -26.4616 -31.5907
rradius 27.5951
rwrist -10.1621
rhand -18.0826 18.5324
rfingers 7.12502
rthumb 8.1906 -11.2888
lclavicle -1.18476e-013 4.92986e-014
lhumerus 0.203351 -36.0938 103.489
lradius 44.6312
lwrist -15.0749
lhand -18.1507 21.7614
lfingers 7.12502
lthumb 8.12492 -308.415
rfemur -56.3527 9.22147 40.3737
rtibia 47.8649
rfoot 16.5776 14.3297
rtoes 9.14209
lfemur -2.39667 15.0371 -34.851
ltibia 48.1894
lfoot -23.6126 4.85811
ltoes 11.3674
632
root 2.57623 16.461 5.96477 -16.1065 -11.8125 6.22141
lowerback 13.3745 -12.7518 -10.3115
upperback 3.01164 -18.3076 3.31359
thorax 0.279144 -9.43128 10.7245
lowerneck -11.1902 5.17315 -6.81276
upperneck 33.143 6.91613 5.423
head 12.3049 2.75273 4.13267
rclavicle 2.66769e-013 -1.59028e-014
rhumerus -69.5026 -26.3776 -31.0342
rradius 27.6113
rwrist -10.8363
rhand -19.6049 18.0846
rfingers 7.12502
rthumb 6.72127 -11.7887
lclavicle 2.66769e-013 -1.59028e-014
lhumerus 1.52928 -38.2921 104.043
lradius 44.762
lwrist -17.4127
lhand -17.664 19.2613
lfingers 7.12502
lthumb 8.5946 -310.934
rfemur -55.5882 9.18012 40.6969
rtibia 48.1216
rfoot 16.062 15.4459
rtoes 5.76881
lfemur -1.46973 15.3044 -34.8374
ltibia 47.2874
lfoot -23.3321 3.83722
ltoes 12.0804
633
root 2.59011 16.4636 6.03488 -15.8169 -9.42472 9.29012
lowerback 13.6011 -12.97 -13.7309
upperback 2.04931 -19.1448 2.89589
thorax 0.275122 -9.82021 12.0436
lowerneck -10.8791 5.23026 -7.41965
upperneck 32.8135 7.06426 5.62318
head 12.0558 2.78963 4.2942
rclavicle 1.19867e-013 -3.18055e-014
rhumerus -69.531 -25.8404 -30.7627
rradius 27.5496
rwrist -11.6744
rhand -20.6325 17.9098
rfingers 7.12502
rthumb 5.72916 -11.9928
lclavicle 1.19867e-013 -3.18055e-014
lhumerus 2.69902 -39.9763 104.86
lradius 44.6618
lwrist -19.3957
lhand -17.4917 17.1163
lfingers 7.12502
lthumb 8.76087 -313.086
rfemur -56.4929 7.88123 37.5126
rtibia 48.5251
rfoot 16.4793 15.8159
rtoes 5.14077
lfemur -1.40456 14.6307 -38.7379
ltibia 46.4538
lfoot -22.9243 3.17044
ltoes 12.2734
